<svg width="22" height="20" viewBox="0 0 22 20" fill="none" xmlns="http://www.w3.org/2000/svg">
<path d="M10.9961 1.80194C13.6672 1.80194 13.9808 1.81385 15.0365 1.86148C16.0129 1.90514 16.5408 2.06787 16.8941 2.20679C17.3624 2.38936 17.6958 2.60369 18.0451 2.95297C18.3944 3.30224 18.6127 3.63564 18.7913 4.10399C18.9262 4.45723 19.0929 4.98512 19.1366 5.9615C19.1842 7.01727 19.1961 7.33082 19.1961 10.002C19.1961 12.6732 19.1842 12.9867 19.1366 14.0425C19.0929 15.0189 18.9302 15.5467 18.7913 15.9C18.6087 16.3683 18.3944 16.7017 18.0451 17.051C17.6958 17.4003 17.3624 17.6186 16.8941 17.7972C16.5408 17.9321 16.0129 18.0988 15.0365 18.1425C13.9808 18.1901 13.6672 18.202 10.9961 18.202C8.3249 18.202 8.01134 18.1901 6.95558 18.1425C5.97919 18.0988 5.45131 17.9361 5.09807 17.7972C4.62972 17.6146 4.29632 17.4003 3.94704 17.051C3.59777 16.7017 3.37947 16.3683 3.20087 15.9C3.06592 15.5467 2.89922 15.0189 2.85556 14.0425C2.80793 12.9867 2.79602 12.6732 2.79602 10.002C2.79602 7.33082 2.80793 7.01727 2.85556 5.9615C2.89922 4.98512 3.06195 4.45723 3.20087 4.10399C3.38344 3.63564 3.59777 3.30224 3.94704 2.95297C4.29632 2.60369 4.62972 2.38539 5.09807 2.20679C5.45131 2.07184 5.97919 1.90514 6.95558 1.86148C8.01134 1.80988 8.32887 1.80194 10.9961 1.80194ZM10.9961 0C8.28124 0 7.9399 0.0119071 6.87223 0.0595356C5.80853 0.107164 5.08219 0.277833 4.44714 0.523914C3.78828 0.777932 3.23262 1.12324 2.67695 1.6789C2.12129 2.23457 1.77995 2.79421 1.52196 3.4491C1.27588 4.08414 1.10521 4.81048 1.05758 5.87815C1.00995 6.94185 0.998047 7.28319 0.998047 9.99802C0.998047 12.7128 1.00995 13.0542 1.05758 14.1219C1.10521 15.1856 1.27588 15.9119 1.52196 16.5509C1.77598 17.2098 2.12129 17.7654 2.67695 18.3211C3.23262 18.8768 3.79225 19.2181 4.44714 19.4761C5.08219 19.7222 5.80853 19.8928 6.8762 19.9405C7.94387 19.9881 8.28124 20 11 20C13.7188 20 14.0562 19.9881 15.1239 19.9405C16.1876 19.8928 16.9139 19.7222 17.5529 19.4761C18.2118 19.2221 18.7674 18.8768 19.3231 18.3211C19.8788 17.7654 20.2201 17.2058 20.4781 16.5509C20.7242 15.9159 20.8949 15.1895 20.9425 14.1219C20.9901 13.0542 21.002 12.7168 21.002 9.99802C21.002 7.27922 20.9901 6.94185 20.9425 5.87418C20.8949 4.81048 20.7242 4.08414 20.4781 3.44513C20.2241 2.78627 19.8788 2.2306 19.3231 1.67494C18.7674 1.11927 18.2078 0.777932 17.5529 0.519944C16.9179 0.273864 16.1915 0.103195 15.1239 0.0555666C14.0522 0.0119071 13.7109 0 10.9961 0Z" fill="currentColor"/>
<path d="M10.9953 4.86609C8.16142 4.86609 5.85938 7.16416 5.85938 10.002C5.85938 12.8399 8.15745 15.138 10.9953 15.138C13.8332 15.138 16.1313 12.8399 16.1313 10.002C16.1313 7.16416 13.8332 4.86609 10.9953 4.86609ZM10.9953 13.3321C9.15368 13.3321 7.66132 11.8397 7.66132 9.99806C7.66132 8.15642 9.15368 6.66406 10.9953 6.66406C12.8369 6.66406 14.3293 8.15642 14.3293 9.99806C14.3293 11.8397 12.8369 13.3321 10.9953 13.3321Z" fill="currentColor"/>
<path d="M16.3344 5.85836C16.9964 5.85836 17.533 5.32171 17.533 4.65971C17.533 3.99771 16.9964 3.46106 16.3344 3.46106C15.6724 3.46106 15.1357 3.99771 15.1357 4.65971C15.1357 5.32171 15.6724 5.85836 16.3344 5.85836Z" fill="currentColor"/>
</svg>
