<svg width="20" height="20" viewBox="0 0 20 20" fill="none" xmlns="http://www.w3.org/2000/svg">
<path fill-rule="evenodd" clip-rule="evenodd" d="M17.8068 3.42045C18.6705 3.65909 19.3523 4.34091 19.5795 5.20455C20 6.77273 20 10.0455 20 10.0455C20 10.0455 20 13.3182 19.5909 14.8864C19.3523 15.7614 18.6818 16.4432 17.8182 16.6705C16.25 17.0909 10 17.0909 10 17.0909C10 17.0909 3.75 17.0909 2.19318 16.6705C1.32955 16.4318 0.647727 15.75 0.420455 14.8864C0 13.3182 0 10.0455 0 10.0455C0 10.0455 0 6.77273 0.409091 5.20455C0.647727 4.32955 1.31818 3.64773 2.18182 3.42045C3.75 3 10 3 10 3C10 3 16.25 3 17.8068 3.42045ZM13.1814 10.0455L7.9541 13.0227V7.0682L13.1814 10.0455Z" fill="currentColor"/>
</svg>
